<?xml version="1.0" standalone="no"?>
<!DOCTYPE svg PUBLIC "-//W3C//DTD SVG 20010904//EN"
 "http://www.w3.org/TR/2001/REC-SVG-20010904/DTD/svg10.dtd">
<svg version="1.0" xmlns="http://www.w3.org/2000/svg"
 width="260.000000pt" height="260.000000pt" viewBox="0 0 260.000000 260.000000"
 preserveAspectRatio="xMidYMid meet">
<metadata>
Created by potrace 1.14, written by Peter Selinger 2001-2017
</metadata>
<g transform="translate(0.000000,260.000000) scale(0.100000,-0.100000)"
fill="#000000" stroke="none">
<path d="M477 2215 c-137 -40 -256 -80 -265 -89 -14 -14 -16 -99 -17 -878 0
-583 3 -868 11 -882 17 -34 72 -25 309 54 121 40 225 72 230 72 6 0 51 -13
100 -27 50 -15 119 -35 155 -45 36 -11 115 -33 177 -51 l112 -32 270 77 c149
42 281 74 293 72 13 -3 120 -37 238 -76 118 -38 224 -70 236 -70 52 0 51 -26
50 909 -1 595 -4 873 -12 881 -8 8 -127 47 -204 66 -8 2 -62 17 -120 34 -227
67 -168 70 -477 -19 l-272 -78 -258 74 c-142 41 -269 75 -283 77 -14 1 -137
-30 -273 -69z"/>
</g>
</svg>
